<mxfile host="app.diagrams.net" modified="2024-02-11T06:08:37.763Z" agent="Mozilla/5.0 (Windows NT 10.0; Win64; x64) AppleWebKit/537.36 (KHTML, like Gecko) Chrome/121.0.0.0 Safari/537.36 Edg/121.0.0.0" version="23.1.2" etag="_WJmsk00xfyudBxSN7kP" type="github">
  <diagram name="Page-1" id="kObWJj5i_zT9LaBl0vDd">
    <mxGraphModel>
      <root>
        <mxCell id="0" />
        <mxCell id="1" parent="0" />
      </root>
    </mxGraphModel>
  </diagram>
</mxfile>
